<svg xmlns="http://www.w3.org/2000/svg" height="512pt" version="1.1" viewBox="0 0 512 512" width="512pt">
<g id="surface1">
<path d="M 256 383.46875 C 247.714844 383.46875 241 376.75 241 368.46875 L 241 288.132812 C 241 279.851562 247.714844 273.132812 256 273.132812 C 264.285156 273.132812 271 279.851562 271 288.132812 L 271 368.46875 C 271 376.75 264.285156 383.46875 256 383.46875 Z M 256 383.46875 " style=" stroke:none;fill-rule:nonzero;fill:rgb(100%,58.039216%,40.784314%);fill-opacity:1;" />
<path d="M 256 273.132812 L 256 383.46875 C 264.285156 383.46875 271 376.75 271 368.46875 L 271 288.132812 C 271 279.851562 264.285156 273.132812 256 273.132812 Z M 256 273.132812 " style=" stroke:none;fill-rule:nonzero;fill:rgb(100%,39.215686%,10.196078%);fill-opacity:1;" />
<path d="M 256 238.867188 C 247.714844 238.867188 241 232.152344 241 223.867188 L 241 143.53125 C 241 135.25 247.714844 128.53125 256 128.53125 C 264.285156 128.53125 271 135.25 271 143.53125 L 271 223.867188 C 271 232.152344 264.285156 238.867188 256 238.867188 Z M 256 238.867188 " style=" stroke:none;fill-rule:nonzero;fill:rgb(100%,58.039216%,40.784314%);fill-opacity:1;" />
<path d="M 256 128.53125 L 256 238.867188 C 264.285156 238.867188 271 232.152344 271 223.867188 L 271 143.53125 C 271 135.25 264.285156 128.53125 256 128.53125 Z M 256 128.53125 " style=" stroke:none;fill-rule:nonzero;fill:rgb(100%,39.215686%,10.196078%);fill-opacity:1;" />
<path d="M 223.867188 271 L 143.53125 271 C 135.25 271 128.53125 264.285156 128.53125 256 C 128.53125 247.714844 135.25 241 143.53125 241 L 223.867188 241 C 232.148438 241 238.867188 247.714844 238.867188 256 C 238.867188 264.285156 232.148438 271 223.867188 271 Z M 223.867188 271 " style=" stroke:none;fill-rule:nonzero;fill:rgb(100%,58.039216%,40.784314%);fill-opacity:1;" />
<path d="M 368.464844 271 L 288.132812 271 C 279.847656 271 273.132812 264.285156 273.132812 256 C 273.132812 247.714844 279.847656 241 288.132812 241 L 368.464844 241 C 376.75 241 383.464844 247.714844 383.464844 256 C 383.464844 264.285156 376.75 271 368.464844 271 Z M 368.464844 271 " style=" stroke:none;fill-rule:nonzero;fill:rgb(100%,39.215686%,10.196078%);fill-opacity:1;" />
<path d="M 176.476562 350.527344 C 172.636719 350.527344 168.796875 349.0625 165.867188 346.132812 C 160.011719 340.277344 160.011719 330.777344 165.867188 324.921875 L 222.675781 268.113281 C 228.53125 262.257812 238.027344 262.257812 243.886719 268.113281 C 249.742188 273.972656 249.742188 283.46875 243.886719 289.328125 L 187.082031 346.132812 C 184.152344 349.0625 180.3125 350.527344 176.476562 350.527344 Z M 176.476562 350.527344 " style=" stroke:none;fill-rule:nonzero;fill:rgb(100%,58.039216%,40.784314%);fill-opacity:1;" />
<path d="M 278.722656 248.277344 C 274.882812 248.277344 271.046875 246.8125 268.117188 243.882812 C 262.261719 238.027344 262.261719 228.527344 268.117188 222.671875 L 324.921875 165.867188 C 330.777344 160.011719 340.277344 160.011719 346.136719 165.867188 C 351.992188 171.726562 351.992188 181.222656 346.132812 187.082031 L 289.328125 243.882812 C 286.398438 246.8125 282.5625 248.277344 278.722656 248.277344 Z M 278.722656 248.277344 " style=" stroke:none;fill-rule:nonzero;fill:rgb(100%,39.215686%,10.196078%);fill-opacity:1;" />
<path d="M 233.277344 248.277344 C 229.441406 248.277344 225.601562 246.8125 222.671875 243.882812 L 165.871094 187.078125 C 160.011719 181.222656 160.011719 171.726562 165.871094 165.867188 C 171.726562 160.007812 181.226562 160.007812 187.082031 165.867188 L 243.886719 222.671875 C 249.742188 228.527344 249.742188 238.027344 243.886719 243.882812 C 240.957031 246.8125 237.117188 248.277344 233.277344 248.277344 Z M 233.277344 248.277344 " style=" stroke:none;fill-rule:nonzero;fill:rgb(100%,58.039216%,40.784314%);fill-opacity:1;" />
<path d="M 335.527344 350.527344 C 331.6875 350.527344 327.847656 349.0625 324.917969 346.132812 L 268.113281 289.328125 C 262.257812 283.472656 262.257812 273.972656 268.113281 268.113281 C 273.972656 262.257812 283.46875 262.257812 289.328125 268.113281 L 346.132812 324.921875 C 351.988281 330.777344 351.988281 340.273438 346.132812 346.132812 C 343.203125 349.0625 339.363281 350.527344 335.527344 350.527344 Z M 335.527344 350.527344 " style=" stroke:none;fill-rule:nonzero;fill:rgb(100%,39.215686%,10.196078%);fill-opacity:1;" />
<path d="M 256 0 C 230.011719 0 208.867188 21.144531 208.867188 47.132812 C 208.867188 73.121094 230.011719 94.265625 256 94.265625 C 281.988281 94.265625 303.132812 73.121094 303.132812 47.132812 C 303.132812 21.144531 281.988281 0 256 0 Z M 256 0 " style=" stroke:none;fill-rule:nonzero;fill:rgb(100%,58.039216%,40.784314%);fill-opacity:1;" />
<path d="M 303.132812 47.132812 C 303.132812 21.144531 281.988281 0 256 0 L 256 94.265625 C 281.988281 94.265625 303.132812 73.121094 303.132812 47.132812 Z M 303.132812 47.132812 " style=" stroke:none;fill-rule:nonzero;fill:rgb(100%,39.215686%,10.196078%);fill-opacity:1;" />
<path d="M 256 417.734375 C 230.011719 417.734375 208.867188 438.878906 208.867188 464.867188 C 208.867188 490.855469 230.011719 512 256 512 C 281.988281 512 303.132812 490.855469 303.132812 464.867188 C 303.132812 438.878906 281.988281 417.734375 256 417.734375 Z M 256 417.734375 " style=" stroke:none;fill-rule:nonzero;fill:rgb(100%,58.039216%,40.784314%);fill-opacity:1;" />
<path d="M 303.132812 464.867188 C 303.132812 438.878906 281.988281 417.734375 256 417.734375 L 256 512 C 281.988281 512 303.132812 490.855469 303.132812 464.867188 Z M 303.132812 464.867188 " style=" stroke:none;fill-rule:nonzero;fill:rgb(100%,39.215686%,10.196078%);fill-opacity:1;" />
<path d="M 464.867188 208.867188 C 438.878906 208.867188 417.734375 230.011719 417.734375 256 C 417.734375 281.988281 438.878906 303.132812 464.867188 303.132812 C 490.855469 303.132812 512 281.988281 512 256 C 512 230.011719 490.855469 208.867188 464.867188 208.867188 Z M 464.867188 208.867188 " style=" stroke:none;fill-rule:nonzero;fill:rgb(100%,39.215686%,10.196078%);fill-opacity:1;" />
<path d="M 47.132812 208.867188 C 21.144531 208.867188 0 230.011719 0 256 C 0 281.988281 21.144531 303.132812 47.132812 303.132812 C 73.121094 303.132812 94.265625 281.988281 94.265625 256 C 94.265625 230.011719 73.121094 208.867188 47.132812 208.867188 Z M 47.132812 208.867188 " style=" stroke:none;fill-rule:nonzero;fill:rgb(100%,58.039216%,40.784314%);fill-opacity:1;" />
<path d="M 437.019531 74.980469 C 428.117188 66.078125 416.28125 61.175781 403.691406 61.175781 C 391.101562 61.175781 379.265625 66.078125 370.363281 74.980469 C 351.988281 93.359375 351.988281 123.261719 370.363281 141.636719 C 379.261719 150.539062 391.101562 155.441406 403.691406 155.441406 C 416.28125 155.441406 428.117188 150.539062 437.019531 141.636719 C 455.398438 123.261719 455.398438 93.355469 437.019531 74.980469 Z M 437.019531 74.980469 " style=" stroke:none;fill-rule:nonzero;fill:rgb(100%,39.215686%,10.196078%);fill-opacity:1;" />
<path d="M 141.636719 370.363281 C 132.734375 361.460938 120.898438 356.558594 108.308594 356.558594 C 95.71875 356.558594 83.882812 361.460938 74.980469 370.363281 C 66.078125 379.265625 61.175781 391.101562 61.175781 403.691406 C 61.175781 416.28125 66.078125 428.117188 74.980469 437.019531 C 83.882812 445.921875 95.71875 450.824219 108.308594 450.824219 C 120.898438 450.824219 132.734375 445.921875 141.636719 437.019531 C 150.539062 428.117188 155.441406 416.28125 155.441406 403.691406 C 155.441406 391.101562 150.539062 379.265625 141.636719 370.363281 Z M 141.636719 370.363281 " style=" stroke:none;fill-rule:nonzero;fill:rgb(100%,58.039216%,40.784314%);fill-opacity:1;" />
<path d="M 437.019531 370.363281 C 428.117188 361.460938 416.28125 356.558594 403.691406 356.558594 C 391.101562 356.558594 379.265625 361.460938 370.363281 370.363281 C 361.460938 379.265625 356.558594 391.101562 356.558594 403.691406 C 356.558594 416.28125 361.460938 428.117188 370.363281 437.019531 C 379.265625 445.921875 391.101562 450.824219 403.691406 450.824219 C 416.28125 450.824219 428.117188 445.921875 437.019531 437.019531 C 455.398438 418.644531 455.398438 388.738281 437.019531 370.363281 Z M 437.019531 370.363281 " style=" stroke:none;fill-rule:nonzero;fill:rgb(100%,39.215686%,10.196078%);fill-opacity:1;" />
<path d="M 141.640625 74.980469 C 132.738281 66.078125 120.902344 61.175781 108.3125 61.175781 C 95.722656 61.175781 83.886719 66.078125 74.984375 74.980469 C 66.082031 83.882812 61.175781 95.71875 61.179688 108.308594 C 61.179688 120.898438 66.082031 132.734375 74.984375 141.636719 C 83.886719 150.539062 95.722656 155.441406 108.3125 155.441406 C 120.902344 155.441406 132.738281 150.539062 141.640625 141.636719 C 150.542969 132.734375 155.445312 120.898438 155.445312 108.308594 C 155.445312 95.71875 150.542969 83.882812 141.640625 74.980469 Z M 141.640625 74.980469 " style=" stroke:none;fill-rule:nonzero;fill:rgb(100%,58.039216%,40.784314%);fill-opacity:1;" />
<path d="M 256 208.867188 C 230.011719 208.867188 208.867188 230.011719 208.867188 256 C 208.867188 281.988281 230.011719 303.132812 256 303.132812 C 281.988281 303.132812 303.132812 281.988281 303.132812 256 C 303.132812 230.011719 281.988281 208.867188 256 208.867188 Z M 256 208.867188 " style=" stroke:none;fill-rule:nonzero;fill:rgb(100%,82.352941%,48.235294%);fill-opacity:1;" />
<path d="M 256 208.867188 L 256 303.132812 C 281.988281 303.132812 303.132812 281.988281 303.132812 256 C 303.132812 230.011719 281.988281 208.867188 256 208.867188 Z M 256 208.867188 " style=" stroke:none;fill-rule:nonzero;fill:rgb(100%,62.352941%,0%);fill-opacity:1;" />
<path d="M 256 64.265625 C 150.277344 64.265625 64.265625 150.277344 64.265625 256 C 64.265625 361.722656 150.277344 447.734375 256 447.734375 C 361.722656 447.734375 447.734375 361.722656 447.734375 256 C 447.734375 150.277344 361.722656 64.265625 256 64.265625 Z M 256 353.46875 C 202.257812 353.46875 158.53125 309.742188 158.53125 256 C 158.53125 202.257812 202.257812 158.53125 256 158.53125 C 309.742188 158.53125 353.464844 202.257812 353.464844 256 C 353.464844 309.742188 309.742188 353.46875 256 353.46875 Z M 256 353.46875 " style=" stroke:none;fill-rule:nonzero;fill:rgb(100%,82.352941%,48.235294%);fill-opacity:1;" />
<path d="M 256 64.265625 L 256 158.535156 C 309.742188 158.535156 353.464844 202.257812 353.464844 256 C 353.464844 309.742188 309.742188 353.46875 256 353.46875 L 256 447.734375 C 361.722656 447.734375 447.734375 361.722656 447.734375 256 C 447.734375 150.28125 361.722656 64.265625 256 64.265625 Z M 256 64.265625 " style=" stroke:none;fill-rule:nonzero;fill:rgb(100%,62.352941%,0%);fill-opacity:1;" />
</g>
</svg>